<svg width="24" height="23" viewBox="0 0 24 23" fill="none" xmlns="http://www.w3.org/2000/svg">
<path d="M21.1314 2.08014C19.9479 0.829053 18.3589 0.0896396 16.6794 0.0085212C14.9999 -0.0725972 13.3526 0.510504 12.0643 1.6422C11.9161 1.75938 11.7375 1.82695 11.5521 1.83607C11.3655 1.83036 11.1855 1.76245 11.0383 1.6422C9.75047 0.50986 8.10334 -0.0736767 6.42391 0.00745375C4.74449 0.0885842 3.15559 0.828448 1.97273 2.08014C1.34527 2.73396 0.847831 3.5117 0.509213 4.36831C0.170596 5.22493 -0.00247307 6.14341 2.66976e-05 7.07058C2.66976e-05 8.95563 0.700552 10.7282 1.92978 12.0126L9.30181 21.0535C9.57961 21.395 9.92482 21.6692 10.3136 21.8572C10.7024 22.0452 11.1255 22.1426 11.5537 22.1426C11.982 22.1426 12.4051 22.0452 12.7939 21.8572C13.1827 21.6692 13.5279 21.395 13.8057 21.0535L21.1331 12.061C21.7607 11.4072 22.2583 10.6295 22.5972 9.77294C22.9361 8.91635 23.1095 7.99785 23.1074 7.07058C23.1089 6.14327 22.935 5.22484 22.5958 4.3683C22.2567 3.51176 21.759 2.73408 21.1314 2.08014ZM19.9386 10.9047L12.5665 19.9457C12.0593 20.5689 11.0449 20.5689 10.5376 19.9457L3.12265 10.8563C2.64687 10.3602 2.26974 9.77016 2.01308 9.12035C1.75642 8.47053 1.62534 7.77384 1.62743 7.07058C1.62743 5.64079 2.15778 4.2958 3.12265 3.28491C3.59688 2.78457 4.16082 2.38737 4.78205 2.11615C5.40329 1.84493 6.06957 1.70504 6.74258 1.70451C7.92437 1.70372 9.06883 2.13812 9.9759 2.93178C10.0436 2.9941 10.65 3.53936 11.5521 3.53936C12.4294 3.53936 13.049 3.00275 13.1051 2.95082C14.0819 2.09243 15.3309 1.65013 16.6044 1.71169C17.8779 1.77326 19.0828 2.33419 19.9799 3.28317C20.4575 3.7849 20.8355 4.38077 21.0921 5.03639C21.3488 5.692 21.4789 6.39437 21.4751 7.10297C21.4713 7.81157 21.3335 8.51235 21.0698 9.16487C20.806 9.81738 20.4216 10.4087 19.9386 10.9047Z" fill="#E7DAD9"/>
<path d="M19.9386 10.9047L12.5665 19.9457C12.0593 20.5689 11.0449 20.5689 10.5376 19.9457L3.12265 10.8563C2.64687 10.3602 2.26974 9.77016 2.01308 9.12035C1.75642 8.47053 1.62534 7.77384 1.62743 7.07058C1.62743 5.64079 2.15778 4.2958 3.12265 3.28491C3.59688 2.78457 4.16082 2.38737 4.78205 2.11615C5.40329 1.84493 6.06957 1.70504 6.74258 1.70451C7.92437 1.70372 9.06883 2.13812 9.9759 2.93178C10.0436 2.9941 10.65 3.53936 11.5521 3.53936C12.4294 3.53936 13.049 3.00275 13.1051 2.95082C14.0819 2.09243 15.3309 1.65013 16.6044 1.71169C17.8779 1.77326 19.0828 2.33419 19.9799 3.28317C20.4575 3.7849 20.8355 4.38077 21.0921 5.03639C21.3488 5.692 21.4789 6.39437 21.4751 7.10297C21.4713 7.81157 21.3335 8.51235 21.0698 9.16487C20.806 9.81738 20.4216 10.4087 19.9386 10.9047Z" fill="#E7DAD9"/>
</svg>
