<svg width="17" height="5" viewBox="0 0 17 5" fill="none" xmlns="http://www.w3.org/2000/svg">
<path d="M2.50594 4.68169C3.57602 4.68169 4.44353 3.81257 4.44353 2.74063C4.44353 1.66868 3.57602 0.799561 2.50594 0.799561C1.43586 0.799561 0.568359 1.66868 0.568359 2.74063C0.568359 3.81257 1.43586 4.68169 2.50594 4.68169Z" fill="white"/>
<path d="M8.31869 4.68169C9.38877 4.68169 10.2563 3.81257 10.2563 2.74063C10.2563 1.66868 9.38877 0.799561 8.31869 0.799561C7.24861 0.799561 6.38111 1.66868 6.38111 2.74063C6.38111 3.81257 7.24861 4.68169 8.31869 4.68169Z" fill="white"/>
<path d="M16.069 2.74063C16.069 3.81257 15.2015 4.68169 14.1314 4.68169C13.0614 4.68169 12.1939 3.81257 12.1939 2.74063C12.1939 1.66868 13.0614 0.799561 14.1314 0.799561C15.2015 0.799561 16.069 1.66868 16.069 2.74063Z" fill="white"/>
</svg>
