<svg width="406" height="47" viewBox="0 0 406 47" fill="none" xmlns="http://www.w3.org/2000/svg">
<g clip-path="url(#clip0_115_74)">
<rect x="6.1416" y="13.9604" width="385.785" height="4.02909" rx="2.01455" fill="#777777"/>
<rect x="6.1416" y="13.9561" width="128.931" height="4.02909" rx="2.01455" fill="white"/>
</g>
<ellipse cx="138.6" cy="15.4638" rx="6.54727" ry="6.54727" fill="white"/>
<path d="M9.14326 25.7155C9.56632 25.7155 9.92893 25.8129 10.2311 26.0077C10.54 26.2024 10.7918 26.471 10.9866 26.8135C11.188 27.1492 11.3358 27.5454 11.4298 28.002C11.5238 28.4587 11.5708 28.9455 11.5708 29.4626C11.5708 29.9864 11.5238 30.4766 11.4298 30.9332C11.3358 31.3831 11.188 31.7793 10.9866 32.1218C10.7918 32.4575 10.54 32.7228 10.2311 32.9175C9.92893 33.1123 9.56632 33.2096 9.14326 33.2096C8.72021 33.2096 8.35424 33.1123 8.04534 32.9175C7.73644 32.7228 7.48127 32.4575 7.27982 32.1218C7.08508 31.7793 6.9407 31.3831 6.84669 30.9332C6.75268 30.4766 6.70567 29.9864 6.70567 29.4626C6.70567 28.9455 6.75268 28.4587 6.84669 28.002C6.9407 27.5454 7.08508 27.1492 7.27982 26.8135C7.48127 26.471 7.73644 26.2024 8.04534 26.0077C8.35424 25.8129 8.72021 25.7155 9.14326 25.7155ZM9.14326 26.5314C8.8478 26.5314 8.60605 26.6288 8.41803 26.8235C8.23001 27.0116 8.08227 27.2533 7.97483 27.5488C7.87411 27.8375 7.8036 28.1531 7.76331 28.4956C7.72301 28.8381 7.70287 29.1604 7.70287 29.4626C7.70287 29.7648 7.72301 30.0871 7.76331 30.4296C7.8036 30.772 7.87411 31.0876 7.97483 31.3764C8.08227 31.6651 8.23001 31.9069 8.41803 32.1016C8.60605 32.2897 8.8478 32.3837 9.14326 32.3837C9.43202 32.3837 9.66704 32.2897 9.84835 32.1016C10.0364 31.9069 10.1841 31.6651 10.2916 31.3764C10.399 31.0876 10.4729 30.772 10.5132 30.4296C10.5534 30.0871 10.5736 29.7648 10.5736 29.4626C10.5736 29.1604 10.5534 28.8381 10.5132 28.4956C10.4729 28.1531 10.399 27.8375 10.2916 27.5488C10.1841 27.2533 10.0364 27.0116 9.84835 26.8235C9.66704 26.6288 9.43202 26.5314 9.14326 26.5314ZM14.3179 28.8482C14.3179 29.0295 14.2541 29.1873 14.1265 29.3216C13.9989 29.4492 13.8377 29.513 13.643 29.513C13.455 29.513 13.2938 29.4492 13.1595 29.3216C13.0319 29.194 12.9681 29.0395 12.9681 28.8582C12.9681 28.6836 13.0319 28.5292 13.1595 28.3949C13.2871 28.2606 13.4483 28.1934 13.643 28.1934C13.8377 28.1934 13.9989 28.2606 14.1265 28.3949C14.2541 28.5225 14.3179 28.6736 14.3179 28.8482ZM14.3179 32.424C14.3179 32.5986 14.2541 32.753 14.1265 32.8873C13.9989 33.0216 13.8377 33.0888 13.643 33.0888C13.455 33.0888 13.2938 33.025 13.1595 32.8974C13.0319 32.7631 12.9681 32.6086 12.9681 32.434C12.9681 32.2527 13.0319 32.0983 13.1595 31.9707C13.2871 31.8364 13.4483 31.7692 13.643 31.7692C13.8377 31.7692 13.9989 31.833 14.1265 31.9606C14.2541 32.0882 14.3179 32.2427 14.3179 32.424ZM17.2974 28.8985H17.6097C17.8111 28.8985 18.0059 28.8817 18.1939 28.8482C18.3886 28.8079 18.5599 28.7441 18.7076 28.6568C18.8553 28.5628 18.9729 28.4385 19.0601 28.2841C19.1542 28.1296 19.2012 27.9383 19.2012 27.7099C19.2012 27.5286 19.1676 27.3675 19.1004 27.2264C19.0333 27.0787 18.9393 26.9545 18.8184 26.8538C18.7042 26.753 18.5699 26.6758 18.4155 26.6221C18.2678 26.5617 18.11 26.5314 17.9421 26.5314C17.6399 26.5314 17.3814 26.6087 17.1665 26.7631C16.9583 26.9176 16.8005 27.1324 16.6931 27.4078L15.8067 27.0955C15.9813 26.6657 16.2599 26.33 16.6427 26.0882C17.0322 25.8398 17.4787 25.7155 17.9824 25.7155C18.2778 25.7155 18.5565 25.7592 18.8184 25.8465C19.087 25.9271 19.322 26.0479 19.5235 26.2091C19.7249 26.3703 19.8828 26.5717 19.9969 26.8135C20.1178 27.0552 20.1782 27.3339 20.1782 27.6495C20.1782 27.851 20.1446 28.039 20.0775 28.2136C20.0171 28.3882 19.9298 28.546 19.8156 28.687C19.7082 28.828 19.5772 28.9489 19.4228 29.0496C19.2683 29.1503 19.1004 29.2242 18.9191 29.2712V29.2914C19.1273 29.3316 19.3187 29.4022 19.4933 29.5029C19.6746 29.6036 19.829 29.7312 19.9566 29.8856C20.0842 30.0334 20.1849 30.2046 20.2588 30.3993C20.3327 30.5941 20.3696 30.8056 20.3696 31.0339C20.3696 31.3898 20.3024 31.7054 20.1681 31.9808C20.0338 32.2494 19.8559 32.4743 19.6343 32.6556C19.4127 32.8369 19.1575 32.9746 18.8688 33.0686C18.58 33.1626 18.2845 33.2096 17.9824 33.2096C17.4183 33.2096 16.9214 33.082 16.4916 32.8269C16.0618 32.5717 15.7496 32.1755 15.5548 31.6383L16.4614 31.3361C16.5688 31.645 16.7501 31.8968 17.0053 32.0916C17.2672 32.2863 17.5862 32.3837 17.9622 32.3837C18.1435 32.3837 18.3181 32.3568 18.486 32.3031C18.6606 32.2427 18.815 32.1554 18.9493 32.0412C19.0836 31.927 19.1911 31.786 19.2717 31.6181C19.3523 31.4503 19.3925 31.2522 19.3925 31.0239C19.3925 30.7754 19.3388 30.5672 19.2314 30.3993C19.1239 30.2315 18.9829 30.0972 18.8083 29.9964C18.6405 29.889 18.4491 29.8151 18.2342 29.7748C18.0193 29.7278 17.8078 29.7043 17.5996 29.7043H17.2974V28.8985ZM25.1816 29.2712C25.3696 29.3182 25.5442 29.3988 25.7054 29.513C25.8732 29.6204 26.0176 29.7513 26.1385 29.9058C26.2594 30.0602 26.3534 30.2382 26.4205 30.4396C26.4944 30.6411 26.5313 30.856 26.5313 31.0843C26.5313 31.42 26.4675 31.7189 26.3399 31.9808C26.2124 32.2427 26.0378 32.4642 25.8162 32.6456C25.6013 32.8269 25.3495 32.9645 25.0607 33.0585C24.772 33.1593 24.4664 33.2096 24.1441 33.2096C23.8218 33.2096 23.5129 33.1593 23.2174 33.0585C22.9287 32.9645 22.6735 32.8269 22.4519 32.6456C22.237 32.4642 22.0658 32.2427 21.9382 31.9808C21.8106 31.7189 21.7468 31.42 21.7468 31.0843C21.7468 30.8493 21.7804 30.631 21.8475 30.4296C21.9214 30.2281 22.0188 30.0502 22.1396 29.8957C22.2672 29.7413 22.4116 29.6137 22.5728 29.513C22.7406 29.4055 22.9152 29.3249 23.0965 29.2712V29.2511C22.7742 29.1369 22.509 28.9422 22.3008 28.6668C22.0993 28.3915 21.9986 28.0558 21.9986 27.6596C21.9986 27.3641 22.0557 27.0989 22.1699 26.8638C22.284 26.6221 22.4385 26.4173 22.6332 26.2494C22.8279 26.0748 23.0529 25.9439 23.3081 25.8566C23.57 25.7626 23.8486 25.7155 24.1441 25.7155C24.4329 25.7155 24.7082 25.7626 24.9701 25.8566C25.232 25.9439 25.4569 26.0714 25.6449 26.2393C25.8397 26.4005 25.9941 26.6019 26.1083 26.8437C26.2224 27.0787 26.2795 27.344 26.2795 27.6394C26.2795 28.0289 26.1754 28.368 25.9673 28.6568C25.7658 28.9455 25.5039 29.1436 25.1816 29.2511V29.2712ZM22.9757 27.6898C22.9757 27.851 23.0025 28.002 23.0563 28.1431C23.1167 28.2841 23.1973 28.4083 23.298 28.5158C23.4054 28.6165 23.5297 28.6971 23.6707 28.7575C23.8184 28.8179 23.9762 28.8482 24.1441 28.8482C24.3053 28.8482 24.4564 28.8179 24.5974 28.7575C24.7384 28.6971 24.8626 28.6165 24.9701 28.5158C25.0775 28.4083 25.1614 28.2841 25.2219 28.1431C25.2823 28.002 25.3125 27.851 25.3125 27.6898C25.3125 27.5219 25.279 27.3675 25.2118 27.2264C25.1514 27.0787 25.0674 26.9545 24.96 26.8538C24.8593 26.7463 24.7384 26.6657 24.5974 26.612C24.4564 26.5516 24.3053 26.5214 24.1441 26.5214C23.9762 26.5214 23.8184 26.5516 23.6707 26.612C23.5297 26.6657 23.4054 26.7463 23.298 26.8538C23.1973 26.9545 23.1167 27.0787 23.0563 27.2264C23.0025 27.3675 22.9757 27.5219 22.9757 27.6898ZM22.744 31.0339C22.744 31.2354 22.7776 31.42 22.8447 31.5879C22.9119 31.7558 23.0059 31.9002 23.1268 32.0211C23.2543 32.1352 23.4021 32.2259 23.57 32.293C23.7446 32.3602 23.9359 32.3937 24.1441 32.3937C24.3456 32.3937 24.5302 32.3602 24.6981 32.293C24.8727 32.2259 25.0204 32.1352 25.1413 32.0211C25.2622 31.9002 25.3562 31.7558 25.4233 31.5879C25.4972 31.42 25.5341 31.2354 25.5341 31.0339C25.5341 30.8392 25.4972 30.6612 25.4233 30.5001C25.3562 30.3322 25.2622 30.1878 25.1413 30.0669C25.0204 29.9461 24.8727 29.8521 24.6981 29.7849C24.5302 29.7178 24.3456 29.6842 24.1441 29.6842C23.9426 29.6842 23.7546 29.7178 23.58 29.7849C23.4122 29.8521 23.2644 29.9461 23.1368 30.0669C23.016 30.1878 22.9186 30.3322 22.8447 30.5001C22.7776 30.6612 22.744 30.8392 22.744 31.0339Z" fill="#B2B2B2"/>
<path d="M373.554 32.9906H371.218V32.1848H373.554V32.9906ZM377.818 35.0454H376.841V29.1025L375.492 30.2307L374.917 29.5558L376.942 27.9139H377.818V35.0454ZM382.177 30.8652C382.177 31.0466 382.113 31.2044 381.986 31.3387C381.858 31.4662 381.697 31.53 381.502 31.53C381.314 31.53 381.153 31.4662 381.019 31.3387C380.891 31.2111 380.827 31.0566 380.827 30.8753C380.827 30.7007 380.891 30.5463 381.019 30.412C381.146 30.2777 381.307 30.2105 381.502 30.2105C381.697 30.2105 381.858 30.2777 381.986 30.412C382.113 30.5396 382.177 30.6906 382.177 30.8652ZM382.177 34.441C382.177 34.6156 382.113 34.7701 381.986 34.9044C381.858 35.0387 381.697 35.1058 381.502 35.1058C381.314 35.1058 381.153 35.0421 381.019 34.9145C380.891 34.7802 380.827 34.6257 380.827 34.4511C380.827 34.2698 380.891 34.1154 381.019 33.9878C381.146 33.8535 381.307 33.7863 381.502 33.7863C381.697 33.7863 381.858 33.8501 381.986 33.9777C382.113 34.1053 382.177 34.2597 382.177 34.441ZM386.829 35.0454H385.852V29.1025L384.502 30.2307L383.928 29.5558L385.952 27.9139H386.829V35.0454ZM393.041 31.2883C393.229 31.3353 393.403 31.4159 393.565 31.53C393.732 31.6375 393.877 31.7684 393.998 31.9229C394.119 32.0773 394.213 32.2553 394.28 32.4567C394.354 32.6582 394.391 32.8731 394.391 33.1014C394.391 33.4371 394.327 33.736 394.199 33.9978C394.072 34.2597 393.897 34.4813 393.675 34.6626C393.461 34.844 393.209 34.9816 392.92 35.0756C392.631 35.1764 392.326 35.2267 392.003 35.2267C391.681 35.2267 391.372 35.1764 391.077 35.0756C390.788 34.9816 390.533 34.844 390.311 34.6626C390.096 34.4813 389.925 34.2597 389.797 33.9978C389.67 33.736 389.606 33.4371 389.606 33.1014C389.606 32.8664 389.64 32.6481 389.707 32.4467C389.781 32.2452 389.878 32.0673 389.999 31.9128C390.126 31.7584 390.271 31.6308 390.432 31.53C390.6 31.4226 390.774 31.342 390.956 31.2883V31.2681C390.633 31.154 390.368 30.9593 390.16 30.6839C389.959 30.4086 389.858 30.0729 389.858 29.6767C389.858 29.3812 389.915 29.116 390.029 28.8809C390.143 28.6392 390.298 28.4344 390.492 28.2665C390.687 28.0919 390.912 27.9609 391.167 27.8737C391.429 27.7796 391.708 27.7326 392.003 27.7326C392.292 27.7326 392.567 27.7796 392.829 27.8737C393.091 27.9609 393.316 28.0885 393.504 28.2564C393.699 28.4176 393.853 28.619 393.967 28.8608C394.082 29.0958 394.139 29.3611 394.139 29.6565C394.139 30.046 394.035 30.3851 393.826 30.6739C393.625 30.9626 393.363 31.1607 393.041 31.2681V31.2883ZM390.835 29.7069C390.835 29.868 390.862 30.0191 390.915 30.1602C390.976 30.3012 391.056 30.4254 391.157 30.5328C391.265 30.6336 391.389 30.7142 391.53 30.7746C391.678 30.835 391.835 30.8652 392.003 30.8652C392.164 30.8652 392.316 30.835 392.457 30.7746C392.598 30.7142 392.722 30.6336 392.829 30.5328C392.937 30.4254 393.021 30.3012 393.081 30.1602C393.142 30.0191 393.172 29.868 393.172 29.7069C393.172 29.539 393.138 29.3846 393.071 29.2435C393.011 29.0958 392.927 28.9716 392.819 28.8708C392.718 28.7634 392.598 28.6828 392.457 28.6291C392.316 28.5687 392.164 28.5384 392.003 28.5384C391.835 28.5384 391.678 28.5687 391.53 28.6291C391.389 28.6828 391.265 28.7634 391.157 28.8708C391.056 28.9716 390.976 29.0958 390.915 29.2435C390.862 29.3846 390.835 29.539 390.835 29.7069ZM390.603 33.051C390.603 33.2525 390.637 33.4371 390.704 33.605C390.771 33.7729 390.865 33.9173 390.986 34.0381C391.114 34.1523 391.261 34.243 391.429 34.3101C391.604 34.3773 391.795 34.4108 392.003 34.4108C392.205 34.4108 392.389 34.3773 392.557 34.3101C392.732 34.243 392.88 34.1523 393.001 34.0381C393.121 33.9173 393.215 33.7729 393.283 33.605C393.356 33.4371 393.393 33.2525 393.393 33.051C393.393 32.8563 393.356 32.6783 393.283 32.5172C393.215 32.3493 393.121 32.2049 393.001 32.084C392.88 31.9632 392.732 31.8692 392.557 31.802C392.389 31.7349 392.205 31.7013 392.003 31.7013C391.802 31.7013 391.614 31.7349 391.439 31.802C391.271 31.8692 391.124 31.9632 390.996 32.084C390.875 32.2049 390.778 32.3493 390.704 32.5172C390.637 32.6783 390.603 32.8563 390.603 33.051Z" fill="#B2B2B2"/>
<defs>
<clipPath id="clip0_115_74">
<rect x="6.1416" y="13.9604" width="385.785" height="4.02909" rx="2.01455" fill="white"/>
</clipPath>
</defs>
</svg>
