<svg width="70" height="78" viewBox="0 0 70 78" fill="none" xmlns="http://www.w3.org/2000/svg">
<path d="M69.239 24.8084C69.239 13.6989 62.7435 4.3909 54.1178 4.3909H47.9716C54.2576 9.3076 57.0514 16.739 56.9116 25.1837C56.807 34.5669 53.4193 41.285 50.3812 45.3384H55.41C63.1976 45.3384 69.239 36.3307 69.239 24.8084ZM52.2321 25.0711C52.4416 11.3719 42.1048 1.013 25.866 0.862867L21.1516 0.825334C16.6117 0.787802 13.2592 1.16312 11.3734 1.72611C8.64954 2.43922 6.03038 4.20322 6.03038 7.76878C6.03038 9.19503 6.37961 10.2834 6.79866 11.0716C7.07803 11.522 7.04311 11.9349 6.58913 12.1225C4.45891 13.0608 2.64295 15.2752 2.64295 18.2028C2.64295 19.9292 3.09694 21.393 3.90015 22.4439C4.28428 23.0069 4.21443 23.4948 3.58585 23.9077C2.01436 24.8835 0.896857 26.9853 0.896857 29.4249C0.896857 31.1889 1.42069 33.028 2.32865 33.9286C2.92233 34.4542 2.81756 34.8295 2.22389 35.3926C1.14131 36.3685 0.442871 38.0573 0.442871 40.1967C0.442871 43.7998 3.06202 46.7649 6.51928 46.7649H18.8118C21.9199 46.7649 23.9803 48.4912 23.9803 51.2686C23.9803 56.2604 18.1832 65.4558 18.1832 72.0615C18.1832 75.5896 20.2436 77.6163 23.0024 77.6163C25.4819 77.6163 26.7042 75.777 28.0312 72.9621C33.2346 62.1154 40.1491 53.3328 45.4225 45.789C49.8925 39.4085 52.0923 33.9286 52.2321 25.0711Z" fill="#997575" fill-opacity="0.85"/>
</svg>
