<svg width="70" height="78" viewBox="0 0 70 78" fill="none" xmlns="http://www.w3.org/2000/svg">
<path d="M0.298258 53.1403C0.298258 64.2498 6.87255 73.5578 15.6028 73.5578H21.8236C15.4613 68.6411 12.6337 61.2097 12.7752 52.765C12.881 43.3818 16.3098 36.6637 19.3847 32.6103H14.295C6.41289 32.6103 0.298258 41.6181 0.298258 53.1403ZM17.5114 52.8776C17.2994 66.5769 27.7615 76.9357 44.1972 77.0859L48.9688 77.1234C53.5638 77.1609 56.9569 76.7856 58.8656 76.2226C61.6225 75.5095 64.2734 73.7455 64.2734 70.18C64.2734 68.7537 63.92 67.6653 63.4958 66.8771C63.2131 66.4267 63.2484 66.0138 63.7079 65.8262C65.864 64.8879 67.7019 62.6735 67.7019 59.746C67.7019 58.0195 67.2425 56.5557 66.4295 55.5048C66.0407 54.9418 66.1114 54.4539 66.7476 54.0411C68.3382 53.0653 69.4692 50.9635 69.4692 48.5239C69.4692 46.7599 68.939 44.9207 68.0201 44.0201C67.4192 43.4946 67.5252 43.1192 68.1261 42.5561C69.2218 41.5803 69.9287 39.8915 69.9287 37.752C69.9287 34.1489 67.2778 31.1838 63.7786 31.1838H51.337C48.1913 31.1838 46.1059 29.4575 46.1059 26.6801C46.1059 21.6883 51.9732 12.4929 51.9732 5.88724C51.9732 2.35909 49.8878 0.332389 47.0955 0.332389C44.586 0.332389 43.3489 2.17173 42.0058 4.98662C36.7393 15.8334 29.741 24.6159 24.4036 32.1597C19.8794 38.5402 17.6529 44.0201 17.5114 52.8776Z" fill="#759983" fill-opacity="0.85"/>
</svg>
