<svg width="24" height="23" viewBox="0 0 24 23" fill="none" xmlns="http://www.w3.org/2000/svg">
<path d="M21.9059 2.15924C20.7223 0.908155 19.1333 0.168741 17.4538 0.0876228C15.7743 0.00650438 14.127 0.589605 12.8387 1.7213C12.6905 1.83848 12.512 1.90605 12.3265 1.91517C12.1399 1.90947 11.9599 1.84155 11.8127 1.7213C10.5249 0.588961 8.87775 0.00542488 7.19833 0.0865553C5.5189 0.167686 3.93001 0.907549 2.74715 2.15924C2.11968 2.81306 1.62224 3.5908 1.28363 4.44742C0.94501 5.30403 0.771941 6.22251 0.774441 7.14969C0.774441 9.03474 1.47497 10.8073 2.70419 12.0917L10.0762 21.1326C10.354 21.4741 10.6992 21.7483 11.088 21.9363C11.4768 22.1243 11.8999 22.2217 12.3282 22.2217C12.7564 22.2217 13.1795 22.1243 13.5683 21.9363C13.9571 21.7483 14.3023 21.4741 14.5801 21.1326L21.9075 12.1401C22.5351 11.4863 23.0328 10.7086 23.3717 9.85205C23.7106 8.99545 23.884 8.07695 23.8819 7.14969C23.8833 6.22237 23.7094 5.30394 23.3703 4.4474C23.0311 3.59086 22.5334 2.81318 21.9059 2.15924V2.15924ZM20.713 10.9838L13.3409 20.0248C12.8337 20.648 11.8193 20.648 11.3121 20.0248L3.89707 10.9354C3.42129 10.4393 3.04415 9.84927 2.78749 9.19945C2.53084 8.54964 2.39976 7.85294 2.40184 7.14969C2.40184 5.71989 2.93219 4.37491 3.89707 3.36401C4.37129 2.86367 4.93523 2.46647 5.55647 2.19525C6.1777 1.92403 6.84398 1.78414 7.517 1.78361C8.69878 1.78282 9.84325 2.21722 10.7503 3.01089C10.8181 3.0732 11.4244 3.61846 12.3265 3.61846C13.2038 3.61846 13.8234 3.08186 13.8796 3.02993C14.8563 2.17153 16.1053 1.72923 17.3788 1.79079C18.6523 1.85236 19.8572 2.41329 20.7543 3.36228C21.2319 3.864 21.6099 4.45987 21.8666 5.11549C22.1232 5.7711 22.2533 6.47348 22.2495 7.18207C22.2457 7.89067 22.1079 8.59145 21.8442 9.24397C21.5805 9.89649 21.196 10.4878 20.713 10.9838V10.9838Z" fill="#CBB7B5"/>
</svg>
